<svg viewBox="0 0 1024 1024" class="icon" version="1.1" xmlns="http://www.w3.org/2000/svg" fill="#000000"><g id="SVGRepo_bgCarrier" stroke-width="0"></g><g id="SVGRepo_tracerCarrier" stroke-linecap="round" stroke-linejoin="round"></g><g id="SVGRepo_iconCarrier"><path d="M668.1 267H356.7c-140.8 0-254.9 114.1-254.9 254.9H923C923 381.2 808.9 267 668.1 267z" fill="#FCD04E"></path><path d="M684.5 267c39.9 10.1 136.3 80.8 142.1 147.5 2.4 28-20.3 51.9-48.4 51.9H167.8c-10.9 0-22.4-9.1-23.5-19.9l5.4-68.3-34.8 72.4c-5.5 20.8-13 45.4-13 67.9H923c0-115.2-111.5-247.3-238.5-251.5z" fill="#F6BB33"></path><path d="M140.4 707.9s-5.7 64.5 76.5 66 610.9 0 610.9 0 50.9-17.7 52.9-59.6c2-41.9-71.6-66.8-97.6-68.8s-270.7 0-270.7 0-227.9-1.9-274.4-0.9-100.3 39.8-100.3 39.8l2.7 23.5z" fill="#FFDEB3"></path><path d="M101.8 674.8l50.9-69.3 711.6 5.4 51 48.1 7.6 23.5L899 689l-59.7-22.8-30.4-19h-41.2s-87.2 37.4-114.6 41.7c-27.5 4.3-101.2-44.4-134.8-41.7-33.6 2.7-99.8 43.4-135.6 42s-97.6-46.8-136.7-43.6c-39 3.2-93.3 34.6-108.5 39-15 4.3-35.7-9.8-35.7-9.8z" fill="#95C751"></path><path d="M908.8 605.4H105.2c-1.9 0-3.4-1.5-3.4-3.4v-81.5c0-1.9 1.5-3.4 3.4-3.4h803.5c1.9 0 3.4 1.5 3.4 3.4V602c0 1.9-1.5 3.4-3.3 3.4z" fill="#F76031"></path><path d="M332.8 569.6L266.7 520l516.4-2.5-98.6 52.1-68.4-43.6-211.8 0.2z" fill="#FCD04E"></path><path d="M887.6 615.1c25.8-5.5 45.2-28.5 45.2-55.9 0-12.5-4.2-24-11-33.5 6.2-1.3 11-6.5 11-13.2 0-150.5-122.4-272.9-272.9-272.9H362.7C212.2 239.6 89.8 362 89.8 512.5c0 6.6 4.8 11.9 11 13.2-6.9 9.4-11 20.9-11 33.5 0 25.6 17 47.1 40.2 54.3-26.6 25.4-48.9 53.5-42 72.5 2.7 7.4 10.1 16.2 30 16.2 2.6 0 5-0.2 7.4-0.3v3.7c0 43.5 35.4 78.8 78.8 78.8h614.2c43.5 0 78.8-35.4 78.8-78.8v-3.7c2.5 0.1 4.8 0.3 7.4 0.3 17.5 0 28.2-5.7 31.7-16.8 5.2-16.2-11.2-39.8-48.7-70.3zM719 529.4l-37 23.7-32-23.7h69z m-351.6 0l-37.1 23.7-32-23.7h69.1zM362.7 267h297.1c130.8 0 238 102.8 245.2 231.8H117.6c7.1-129 114.3-231.8 245.1-231.8zM117.2 559.2c0-16.4 13.4-29.8 29.8-29.8h105.2l69.4 51.3c2.4 1.8 5.3 2.7 8.1 2.7 2.6 0 5.1-0.7 7.4-2.2l81.1-51.8h185.6l69.4 51.3c2.4 1.8 5.3 2.7 8.1 2.7 2.6 0 5.1-0.7 7.4-2.2l81.1-51.8h105.7c16.4 0 29.8 13.4 29.8 29.8S891.9 589 875.5 589H147c-16.5 0-29.8-13.4-29.8-29.8z m752.6 146.3c0 28.4-23.1 51.4-51.4 51.4H204.2c-28.4 0-51.4-23.1-51.4-51.4v-8c3.9-1.1 7.5-2.5 10.9-3.9 0.5-0.2 0.9-0.4 1.4-0.6 2.9-1.3 5.7-2.6 8.3-4 0.5-0.3 0.9-0.5 1.4-0.8 5.9-3.2 11.2-6.7 16.3-10 15.8-10.4 29.4-19.4 58-19.4 28.7 0 42.3 9 58 19.4 4.2 2.8 8.6 5.7 13.4 8.5 14.3 8.3 32.1 15.4 59.7 15.4 32.3 0 51-9.7 66.6-19.7 2.2-1.4 4.4-2.8 6.5-4.2 15.7-10.4 29.3-19.4 58-19.4s42.3 9 58 19.4c17 11.2 36.2 23.9 73.1 23.9 36.9 0 56.1-12.7 73.1-23.9 15.7-10.4 29.3-19.4 58-19.4 28.6 0 42.2 9 58 19.4 5.1 3.3 10.4 6.8 16.3 10 0.4 0.2 0.9 0.5 1.3 0.7 2.6 1.4 5.4 2.8 8.3 4 0.5 0.2 0.9 0.4 1.4 0.6 3.4 1.4 7 2.8 10.9 3.9v8.1z m34.8-30.7c-7 0-13.1-0.6-18.6-1.5h-0.1c-3.9-0.7-7.4-1.6-10.7-2.7-0.6-0.2-1.1-0.4-1.6-0.6-6.5-2.3-12.2-5.3-17.8-8.7-0.2-0.1-0.5-0.3-0.7-0.4-2.8-1.7-5.5-3.5-8.4-5.4-17-11.2-36.2-23.9-73.1-23.9-36.9 0-56.1 12.7-73.1 23.9-15.7 10.4-29.3 19.4-58 19.4s-42.3-9-58-19.4c-17-11.2-36.2-23.9-73.1-23.9-36.9 0-56.1 12.7-73.1 23.9-15.7 10.4-29.3 19.4-58 19.4-21.5 0-34.5-5.1-46.4-12-3.9-2.3-7.7-4.8-11.7-7.4-17-11.2-36.2-23.9-73.1-23.9-36.9 0-56.2 12.7-73.2 23.9-2.9 1.9-5.8 3.8-8.7 5.6-0.1 0.1-0.2 0.1-0.3 0.2-5.6 3.4-11.3 6.4-17.9 8.7-0.5 0.2-1.1 0.4-1.7 0.6-3.3 1.1-6.8 2-10.7 2.7h-0.1c-5.5 1-11.6 1.5-18.6 1.5-1.2 0-2.3-0.1-3.1-0.1 4.6-11.2 27.2-36.1 53-58.2H844c29.8 21.6 56.8 46.3 64 58.3-0.8-0.1-2 0-3.4 0z" fill="#004364"></path><path d="M335.5 314.6m-15.8 0a15.8 15.8 0 1 0 31.6 0 15.8 15.8 0 1 0-31.6 0Z" fill="#004364"></path><path d="M441.4 298.8c-8.7 0-15.8 7.1-15.8 15.8 0 8.7 7.1 15.8 15.8 15.8 8.7 0 15.8-7.1 15.8-15.8 0-8.7-7.1-15.8-15.8-15.8z" fill="#004364"></path><path d="M547.3 314.6m-15.8 0a15.8 15.8 0 1 0 31.6 0 15.8 15.8 0 1 0-31.6 0Z" fill="#004364"></path><path d="M653.3 314.6m-15.8 0a15.8 15.8 0 1 0 31.6 0 15.8 15.8 0 1 0-31.6 0Z" fill="#004364"></path><path d="M282.5 355c-8.7 0-15.8 7.1-15.8 15.8 0 8.7 7.1 15.8 15.8 15.8 8.7 0 15.8-7.1 15.8-15.8 0-8.8-7.1-15.8-15.8-15.8z" fill="#004364"></path><path d="M388.4 370.8m-15.8 0a15.8 15.8 0 1 0 31.6 0 15.8 15.8 0 1 0-31.6 0Z" fill="#004364"></path><path d="M494.4 355c-8.7 0-15.8 7.1-15.8 15.8 0 8.7 7.1 15.8 15.8 15.8 8.7 0 15.8-7.1 15.8-15.8 0-8.8-7.1-15.8-15.8-15.8z" fill="#004364"></path><path d="M600.3 370.8m-15.8 0a15.8 15.8 0 1 0 31.6 0 15.8 15.8 0 1 0-31.6 0Z" fill="#004364"></path><path d="M703 370.8m-15.8 0a15.8 15.8 0 1 0 31.6 0 15.8 15.8 0 1 0-31.6 0Z" fill="#004364"></path></g></svg>

