<svg height="200px" width="200px" version="1.1" id="Layer_1" xmlns="http://www.w3.org/2000/svg" xmlns:xlink="http://www.w3.org/1999/xlink" viewBox="0 0 512.002 512.002" xml:space="preserve" fill="#000000"><g id="SVGRepo_bgCarrier" stroke-width="0"></g><g id="SVGRepo_tracerCarrier" stroke-linecap="round" stroke-linejoin="round"></g><g id="SVGRepo_iconCarrier"> <path style="fill:#fffca3;" d="M418.925,407.994c-2.145-43.967-79.353-223.047-97.582-249.854 c-10.948,38.005-39.263,57.577-65.341,70.312c-26.078-12.734-54.393-32.307-65.342-70.312 c-18.229,26.808-95.438,205.888-97.583,249.854c-2.145,43.965,20.375,100.799,42.894,94.365 c14.935-4.267,74.292-68.967,120.031-138.359c45.738,69.393,105.096,134.093,120.03,138.359 C398.55,508.793,421.069,451.959,418.925,407.994z"></path> <ellipse style="fill:#46C19C;" cx="256.07" cy="270.77" rx="80" ry="132"></ellipse> <g> <circle style="fill:#d00606;" cx="210.69" cy="49" r="24"></circle> <circle style="fill:#d00606;" cx="297.69" cy="47" r="24"></circle> </g> <ellipse style="fill:#6B676E;" cx="256.07" cy="89" rx="63.21" ry="48"></ellipse> <path style="fill:#55e00b;" d="M320.067,138.767c0,53.019-28.654,112-64,112s-64-58.981-64-112c0-53.02,28.654-72,64-72 S320.067,85.747,320.067,138.767z"></path> <path style="fill:#80f471;" d="M196.492,107.198c-1.704,5.336-2.921,11.298-3.636,17.88c18.598-6.536,40.173-10.312,63.211-10.312 s44.614,3.775,63.211,10.312c-0.714-6.582-1.932-12.544-3.636-17.88c-18.2-5.315-38.289-8.432-59.576-8.432 S214.692,101.883,196.492,107.198z"></path> <path style="fill:#B5DCC9;" d="M256.005,235.335c-20.919-10.752-51.258-26.875-62.534-56.111 c-13.177,23.738-13.403,55.965-13.403,91.543c0,57.277,21.043,115.91,50.403,134.178c8.72-12.611,17.373-25.666,25.534-38.699 c8.173,13.053,16.84,26.127,25.572,38.755c29.405-18.226,50.49-76.9,50.49-134.233c0-35.648,0.626-67.937-12.597-91.688 C308.212,208.404,276.957,224.565,256.005,235.335z"></path> <path style="fill:#9FC7B6;" d="M256.001,235.335c-27.488,13.422-52.311,18.697-48.066,31.432 c8.008,24.023,26.405,56.597,48.066,89.46c21.662-32.863,40.058-65.437,48.066-89.46 C308.312,254.032,283.489,248.757,256.001,235.335z"></path> <path style="fill:#AADCAA;" d="M197.693,180.758c10.005,38.02,32.354,70.009,58.375,70.009s48.37-31.988,58.375-70.008 c-0.309-0.545-0.582-1.144-0.896-1.68c-11.851,29.325-35.489,45.486-57.544,56.256c-22.02-10.752-45.623-26.875-57.492-56.111 C198.224,179.714,197.975,180.261,197.693,180.758z"></path> <g> <path style="fill:#91CF8C;" d="M300.567,201.279c-4.379,5.582-9.218,10.505-14.376,14.848c4.473,0.72,9.046,1.226,13.501,1.226 c0.009,0,0.019-0.001,0.028-0.001c0.018-0.03,0.036-0.063,0.053-0.093c1.503-2.615,2.937-5.332,4.297-8.145 c0.022-0.045,0.045-0.088,0.066-0.133c1.356-2.812,2.636-5.721,3.841-8.709c0.021-0.053,0.041-0.107,0.062-0.161 C305.971,200.931,303.385,201.216,300.567,201.279z"></path> <path style="fill:#91CF8C;" d="M225.813,216.133c-5.161-4.344-10.003-9.266-14.383-14.85c-2.763-0.071-5.297-0.363-7.334-1.169 c0.022,0.055,0.042,0.112,0.064,0.168c1.203,2.982,2.48,5.887,3.834,8.693c0.02,0.041,0.041,0.08,0.061,0.121 c1.357,2.807,2.789,5.519,4.288,8.128c0.02,0.035,0.04,0.071,0.06,0.106C216.826,217.335,221.368,216.839,225.813,216.133z"></path> </g> <g> <path style="fill:#ADA9A7;" d="M175.823,198.444c-2.618,5.449-5.421,11.445-8.353,17.857l12.466-2.355 c1.769-6.074,3.779-11.906,6.068-17.425L175.823,198.444z"></path> <path style="fill:#ADA9A7;" d="M175.093,244.108l-20.827,5.206c-2.588,6.027-5.193,12.187-7.795,18.437l27.257-6.815 C173.985,255.224,174.408,249.593,175.093,244.108z"></path> <path style="fill:#ADA9A7;" d="M336.652,194.143c2.618,5.449,5.421,11.445,8.353,17.857l-12.466-2.355 c-1.769-6.074-3.779-11.906-6.068-17.425L336.652,194.143z"></path> <path style="fill:#ADA9A7;" d="M336.848,243l20.827,5.206c2.588,6.027,5.193,12.187,7.795,18.437l-27.257-6.815 C337.957,254.115,337.533,248.484,336.848,243z"></path> </g> <path d="M508.189,283.267l-18.521-12.348c-2.746-1.83-6.736-6.351-8.211-9.301l-17.988-35.978 c-3.27-6.538-10.877-12.156-18.088-13.358L351.29,196.6c-0.075-0.013-0.149-0.016-0.224-0.025 c-8.557-18.68-15.763-32.911-20.105-39.297c-0.281-0.413-0.597-0.786-0.936-1.129c1.519-9.499,2.321-19.11,2.321-28.546 c0-1.732-0.031-3.445-0.086-5.143l34.417-34.418c2.03-2.029,6.826-4.302,9.681-4.588l68.431-6.843 c6.188-0.619,14.517-4.016,19.373-7.9l36.045-28.836c3.45-2.76,4.009-7.795,1.25-11.244c-2.76-3.451-7.794-4.008-11.245-1.25 l-36.045,28.836c-2.479,1.984-7.81,4.158-10.969,4.475l-68.431,6.843c-6.466,0.646-14.807,4.599-19.402,9.193l-25.261,25.262 c-1.874-10.115-4.925-19.333-9.07-27.524c0.192-0.166,0.38-0.341,0.56-0.528c6-6.283,9.305-14.53,9.305-23.222 c0-18.544-15.086-33.63-33.629-33.63c-1.604,0-3.186,0.131-4.743,0.353c-0.744-0.229-1.533-0.353-2.352-0.353 c-4.136,0-17.629-0.655-17.629-9.086c0-4.418-3.582-8-8-8s-8,3.582-8,8c0,7.91,4.119,16.724,14.65,21.513 c-1.388,1.702-2.625,3.541-3.668,5.517c-3.755-0.563-7.602-0.856-11.525-0.856c-4.393,0-8.686,0.378-12.864,1.081 c-0.975-1.879-2.114-3.646-3.401-5.283c11.32-4.666,15.722-13.799,15.722-21.971c0-4.418-3.582-8-8-8s-8,3.582-8,8 c0,8.431-13.494,9.086-17.629,9.086c-0.984,0-1.923,0.187-2.793,0.512c-1.879-0.327-3.798-0.512-5.75-0.512 c-18.543,0-33.629,15.086-33.629,33.63c0,9.38,3.944,18.348,10.826,24.704c-3.901,7.949-6.782,16.85-8.583,26.57L156.64,76.729 c-4.595-4.595-12.936-8.547-19.402-9.193l-68.43-6.843c-3.16-0.316-8.491-2.49-10.97-4.475L21.791,27.382 c-3.449-2.758-8.484-2.201-11.245,1.25c-2.76,3.449-2.201,8.484,1.25,11.244L47.84,68.712c4.856,3.885,13.185,7.281,19.374,7.9 l68.43,6.843c2.856,0.286,7.652,2.559,9.681,4.588l34.417,34.418c-0.055,1.697-0.086,3.41-0.086,5.143 c0,9.436,0.802,19.046,2.321,28.545c-0.339,0.344-0.655,0.717-0.936,1.13c-4.342,6.386-11.548,20.618-20.105,39.297 c-0.075,0.011-0.149,0.013-0.224,0.025l-94.091,15.682c-7.21,1.202-14.817,6.82-18.087,13.358l-17.988,35.977 c-1.476,2.951-5.466,7.472-8.211,9.302L3.813,283.267c-3.676,2.451-4.67,7.418-2.219,11.094c1.542,2.313,4.078,3.563,6.664,3.563 c1.525,0,3.066-0.436,4.43-1.345l18.521-12.348c5.061-3.373,10.928-10.02,13.647-15.458l17.988-35.977 c0.953-1.905,4.306-4.382,6.407-4.731l83.835-13.972c-4.794,10.92-9.835,22.778-14.913,35.103l-21.058,5.265 c-7.012,1.753-14.204,7.831-17.101,14.452L47.062,389.949c-1.277,2.92-4.991,7.351-7.641,9.117L20.9,411.413 c-3.676,2.45-4.67,7.417-2.219,11.094c1.542,2.313,4.078,3.563,6.664,3.563c1.525,0,3.066-0.436,4.43-1.345l18.521-12.347 c5.164-3.442,10.935-10.328,13.424-16.017l52.953-121.036c0.881-2.014,4.19-4.811,6.324-5.344l9.727-2.432 c-22.602,56.551-43.871,117.77-45.033,141.588c-1.827,37.461,12.688,81.848,31.697,96.927c5.733,4.548,11.072,5.938,15.459,5.938 c2.172,0,4.111-0.341,5.748-0.809c15.792-4.513,58.138-52.729,90.799-95.619c0.982-1.29,2.028-2.672,3.128-4.133 c7.431,3.969,15.302,6.085,23.479,6.085c8.177,0,16.048-2.116,23.479-6.085c1.1,1.461,2.146,2.843,3.128,4.133 c32.661,42.891,75.007,91.106,90.799,95.619c1.637,0.468,3.576,0.809,5.748,0.809c4.387,0,9.727-1.392,15.459-5.938 c19.009-15.079,33.524-59.466,31.697-96.927c-1.162-23.817-22.43-85.037-45.033-141.586l9.727,2.432 c2.133,0.533,5.442,3.33,6.324,5.344l52.953,121.037c2.489,5.688,8.26,12.573,13.424,16.016l18.521,12.347 c1.364,0.909,2.905,1.345,4.43,1.345c2.585,0,5.123-1.251,6.664-3.563c2.451-3.677,1.458-8.644-2.219-11.094l-18.521-12.347 c-2.65-1.767-6.364-6.197-7.641-9.117l-52.953-121.036c-2.897-6.621-10.089-12.699-17.101-14.452l-21.058-5.265 c-5.078-12.324-10.118-24.183-14.913-35.103l83.835,13.972c2.101,0.35,5.455,2.826,6.407,4.73l17.988,35.978 c2.719,5.438,8.586,12.085,13.647,15.458l18.521,12.348c1.364,0.909,2.905,1.345,4.43,1.345c2.585,0,5.122-1.251,6.664-3.563 C512.859,290.685,511.865,285.718,508.189,283.267z M324.889,254.271c0,59.492-17.526,112.095-41.913,135.034 c-6.135-8.407-11.935-16.648-17.393-24.689c20.714-31.452,42.174-68.925,49.444-98.407c1.058-4.29-1.563-8.625-5.853-9.683 c-4.285-1.052-8.625,1.563-9.683,5.853c-5.375,21.802-20.653,52.403-43.491,87.771c-22.838-35.368-38.115-65.97-43.491-87.771 c-1.058-4.291-5.394-6.906-9.683-5.853c-4.29,1.058-6.91,5.393-5.853,9.683c7.27,29.482,28.729,66.955,49.444,98.407 c-5.458,8.041-11.257,16.282-17.393,24.689c-24.386-22.939-41.913-75.542-41.913-135.034c0-20.088,1.99-39.953,5.786-58.299 c13.486,33.689,36.198,59.234,63.103,59.234s49.617-25.544,63.103-59.234C322.899,214.318,324.889,234.184,324.889,254.271z M218.279,210.976c8.184-0.059,16.688-2.314,23.601-4.153c5.31-1.413,10.801-2.874,14.122-2.874s8.812,1.461,14.122,2.874 c6.914,1.839,15.417,4.093,23.602,4.151c-11.214,18.034-24.732,28.233-37.724,28.233 C243.01,239.207,229.493,229.008,218.279,210.976z M297.268,33.086c9.721,0,17.629,7.909,17.629,17.63 c0,3.484-1.02,6.827-2.902,9.683c-0.536-0.664-1.063-1.337-1.619-1.979c-7.36-8.499-16.435-14.903-26.634-18.995 C287.03,35.496,291.945,33.086,297.268,33.086z M316.346,127.604c0,20.665-4.399,42.872-12.049,62.119 c-3.753,7.227-12.356,6.348-30.061,1.638c-6.594-1.755-12.823-3.412-18.235-3.412s-11.641,1.657-18.235,3.412 c-17.705,4.709-26.307,5.589-30.061-1.638c-7.649-19.247-12.049-41.454-12.049-62.119c0-47.761,23.123-77.431,60.345-77.431 S316.346,79.843,316.346,127.604z M195.656,50.716c0-9.721,7.908-17.63,17.629-17.63c5.523,0,10.612,2.591,13.895,6.784 c-9.758,4.107-18.454,10.352-25.553,18.549c-0.821,0.948-1.614,1.927-2.39,2.921C196.941,58.302,195.656,54.578,195.656,50.716z M216.977,405.472c-17.792,23.389-36.465,45.774-52.58,63.033c-23.272,24.925-29.936,27.222-30.197,27.304 c-0.727,0.209-2.937,0.838-6.868-2.28c-13.24-10.502-27.333-49.314-25.659-83.612c1.156-23.705,24.897-90.154,48.557-148.17 c1.833-1.618,2.863-4.029,2.686-6.549c7.804-18.934,15.502-36.725,22.284-51.547c-2.688,16.256-4.086,33.376-4.086,50.621 c0,66.242,19.526,122.089,48.354,147.906C218.638,403.274,217.815,404.37,216.977,405.472z M256.001,401.526 c-4.722,0-9.351-1.082-13.835-3.128c4.292-5.908,8.973-12.49,13.835-19.556c4.862,7.065,9.543,13.647,13.835,19.556 C265.352,400.444,260.723,401.526,256.001,401.526z M384.67,493.528c-3.933,3.119-6.144,2.487-6.858,2.283 c-0.272-0.085-6.936-2.382-30.208-27.307c-16.115-17.259-34.789-39.645-52.58-63.033c-0.838-1.102-1.661-2.197-2.489-3.294 c28.827-25.817,48.354-81.664,48.354-147.906c0-17.245-1.397-34.365-4.086-50.621c6.782,14.822,14.48,32.613,22.285,51.547 c-0.177,2.52,0.853,4.931,2.686,6.549c23.659,58.016,47.4,124.465,48.557,148.17C412.003,444.214,397.91,483.026,384.67,493.528z"></path> </g></svg>
