<svg xmlns:dc="http://purl.org/dc/elements/1.1/" xmlns:cc="http://creativecommons.org/ns#" xmlns:rdf="http://www.w3.org/1999/02/22-rdf-syntax-ns#" xmlns:svg="http://www.w3.org/2000/svg" xmlns="http://www.w3.org/2000/svg" xmlns:sodipodi="http://sodipodi.sourceforge.net/DTD/sodipodi-0.dtd" xmlns:inkscape="http://www.inkscape.org/namespaces/inkscape" id="svg13339" sodipodi:docname="hot_dog.svg" viewBox="0 0 256.00001 256" sodipodi:version="0.32" inkscape:export-xdpi="10.5" version="1.1" inkscape:export-ydpi="10.5" inkscape:version="0.92.4 (5da689c313, 2019-01-14)" fill="#000000"><g id="SVGRepo_bgCarrier" stroke-width="0"></g><g id="SVGRepo_tracerCarrier" stroke-linecap="round" stroke-linejoin="round"></g><g id="SVGRepo_iconCarrier"> <title id="title2862">Hot Dog (rounded)</title> <defs id="defs13341"> <linearGradient id="linearGradient14650" y2="158.42999" gradientUnits="userSpaceOnUse" y1="105.08" gradientTransform="matrix(0.9828,0,0,1.0175,-14.914,-21.509)" x2="314.10999" x1="259.04001" inkscape:collect="always"> <stop id="stop14647" style="stop-color:#ffdba2" offset="0"></stop> <stop id="stop14648" style="stop-color:#803900" offset="1"></stop> </linearGradient> <linearGradient id="linearGradient14651" y2="67.613998" gradientUnits="userSpaceOnUse" y1="130.52" gradientTransform="matrix(0.94086,0,0,1.0629,-14.914,-21.509)" x2="53.130001" x1="111.99" inkscape:collect="always"> <stop id="stop14653" style="stop-color:#ffdba2" offset="0"></stop> <stop id="stop14654" style="stop-color:#803900" offset="1"></stop> </linearGradient> <linearGradient id="linearGradient14655" y2="134.86" spreadMethod="reflect" gradientUnits="userSpaceOnUse" y1="81.336998" gradientTransform="matrix(0.95378,0,0,1.0485,-14.914,-21.509)" x2="290.16" x1="237.38" inkscape:collect="always"> <stop id="stop14657" style="stop-color:#c96b00" offset="0"></stop> <stop id="stop14658" style="stop-color:#400000" offset="1"></stop> </linearGradient> <linearGradient id="linearGradient15293" y2="197.67" gradientUnits="userSpaceOnUse" y1="176.13" gradientTransform="matrix(0.969,0,0,1.032,-14.914,-21.509)" x2="158.91" x1="138.36" inkscape:collect="always"> <stop id="stop15295" style="stop-color:#ffffff;stop-opacity:0" offset="0"></stop> <stop id="stop15296" style="stop-color:#7d4129;stop-opacity:.73725" offset="1"></stop> </linearGradient> </defs> <sodipodi:namedview id="base" bordercolor="#666666" inkscape:pageshadow="2" inkscape:window-width="1920" pagecolor="#ffffff" inkscape:window-maximized="1" inkscape:zoom="1.4986725" inkscape:window-x="-8" showgrid="false" borderopacity="1.0" inkscape:current-layer="svg13339" inkscape:cx="180.50557" inkscape:cy="216.48818" inkscape:window-y="-8" inkscape:window-height="1025" inkscape:pageopacity="0.0" fit-margin-top="0" fit-margin-left="0" fit-margin-right="0" fit-margin-bottom="0"></sodipodi:namedview> <g id="g891" transform="matrix(0.76028061,0,0,0.76028061,0.00180992,3.8828853)"> <path d="m 209.46,47.504 c 0,0 1.6431,-8.0011 0.67294,-11.83 -1.913,-7.5492 -5.8473,-15.482 -12.275,-19.879 -6.2142,-4.2505 -14.741,-5.0189 -22.212,-4.0927 -7.4417,0.92246 -14.325,5.0418 -20.459,9.3548 -10.033,7.0541 -25.72,26.31 -25.72,26.31 l -26.31,36.25 -33.9,32.743 -30.395,28.06 c 0,0 -16.666,14.234 -23.381,22.802 -4.7422,6.0503 -8.7366,12.782 -11.691,19.879 -1.4714,3.5349 -2.4315,7.3115 -2.9227,11.109 -0.95002,7.3447 -1.3517,14.936 0,22.218 0.99087,5.3377 2.9613,10.602 5.8454,15.202 2.2704,3.6209 5.2059,6.9933 8.7681,9.3548 3.2885,2.18 11.106,4.0927 11.106,4.0927 l 27.379,-25.358 33.726,-43.762 37.356,-40.717 55.654,-57.264 20.41,-22.463 8.3461,-12.013 z" style="fill:url(#linearGradient14651);fill-rule:evenodd" sodipodi:nodetypes="caaaaccccaaaaaaccccccc" id="path14024" inkscape:connector-curvature="0"></path> <path d="m 44.614,180.8 c 0,0 -6.2132,9.8159 -5.7699,15.225 0.2739,3.3417 5.0487,8.7 5.0487,8.7 0,0 -9.5167,1.3919 -11.54,5.075 -1.5301,2.7856 -0.9689,7.3546 1.4425,9.425 1.824,1.5661 7.2124,0 7.2124,0 l 9.3761,-6.525 14.927,-4.9519 18.016,-23.01 26.863,-31.18 20.25,-24.22 35.34,-38.428 21.01,-15.473 17.22,-22.085 c 0,0 1.9932,-4.8296 2.1637,-7.391 0.21107,-3.1712 1.2049,-7.6664 -1.4425,-9.425 -3.3037,-2.1946 -8.3019,0.6094 -11.54,2.9 -3.551,2.5121 -7.2124,10.875 -7.2124,10.875 0,0 -13.676,-2.2046 -19.473,0.725 -4.1349,2.0895 -7.9774,6.2919 -8.6548,10.875 -0.38031,2.573 2.8849,7.25 2.8849,7.25 0,0 -12.069,0.54888 -18.031,1.45 -4.3843,0.66266 -9.3289,0.38725 -12.982,2.9 -3.5839,2.465 -6.334,6.6148 -7.2124,10.875 -0.54552,2.6458 1.4425,7.975 1.4425,7.975 0,0 -7.1221,3.1486 -10.819,4.35 -3.772,1.226 -8.3358,0.56213 -11.54,2.9 -5.5171,4.0257 -9.1361,10.781 -10.819,17.4 -1.0138,3.9885 2.0306,8.4235 0.72123,12.325 -1.4147,4.2153 -4.537,8.4727 -8.6548,10.15 -2.4594,1.0018 -7.9336,-0.725 -7.9336,-0.725 l -15.867,-2.175 c 0,0 -3.9317,7.0377 -5.0487,10.875 -1.022,3.511 -1.8248,7.2383 -1.4425,10.875 0.37543,3.5708 3.6062,10.15 3.6062,10.15 l -7.9336,5.075 c 0,0 -6.0737,-2.6205 -7.9336,-0.725 -1.5326,1.5619 -0.60182,4.782 0.72124,6.525 0.78334,1.032 3.6062,1.45 3.6062,1.45 z" style="fill:#009c00;fill-rule:evenodd" sodipodi:nodetypes="cacaacccccccccaaacaacaaacaaaaaccaaccaac" id="path15304" inkscape:connector-curvature="0"></path> <path d="m 275.02,0.0086944 c -4.1332,0.03626 -8.3194,0.55601 -12.275,1.754 -4.7546,1.4399 -9.2097,3.834 -13.444,6.4314 -6.2791,3.8514996 -12.123,8.4520996 -17.536,13.4479996 -11.965,11.041 -32.734,36.25 -32.734,36.25 l -50.86,48.527996 -66.05,74.84 -59.623,74.84 c 0,0 -12.912,18.881 -14.613,29.818 -0.81764,5.2563 0.26719,10.886 2.3381,15.786 1.6236,3.8415 4.7783,6.8676 7.599,9.9395 1.9593,2.1338 4.1468,4.0637 6.4299,5.8468 2.7686,2.1622 5.4624,4.6581 8.7681,5.8468 7.1883,2.5847 15.402,4.2529 22.797,2.3387 7.5881,-1.9641 13.73,-7.9226 19.29,-13.448 l 45.65,-53.129 26.529,-23.73 21.058,-32.077 91.36,-99.226 27.146,-30.152996 8.5289,-10.694 0.43124,-10.508 c 0,0 7.9569,-9.4756 9.2699,-15.289 1.0352,-4.5836 0.18798,-9.6097 -1.4186,-14.026 -2.0143,-5.5366 -5.9527,-10.277 -9.9371,-14.6169996 -2.7168,-2.9592 -5.6578,-6.0238 -9.3526,-7.6008 -2.8896,-1.2333 -6.2109,-1.1969 -9.3526,-1.1694 z" style="fill:url(#linearGradient14655);fill-rule:evenodd" sodipodi:nodetypes="caaaccccaaaaaaccccccccaaaaa" id="path14022" inkscape:connector-curvature="0"></path> <path d="m 50.766,259.01 c 0.67095,2.1949 0.18385,6.8831 0.18385,6.8831 l -10.495,-18.67 -4.1654,-12.35 14.213,-17.39 36.124,3.879 c 0,0 -9.7954,-0.32485 -14.501,0.8125 -4.7007,1.1361 -9.0207,3.5614 -13.257,5.8935 -2.3265,1.2807 -4.575,2.7362 -6.6286,4.4202 -1.6111,1.3211 -3.1646,2.7567 -4.4191,4.4202 -1.5222,2.0185 -3.2927,4.1324 -3.6826,6.6302 -0.38617,2.4743 0.53954,5.0432 1.473,7.3669 1.1934,2.9708 4.2197,5.0419 5.1556,8.1036 z" style="fill:#000000;fill-opacity:0.52187997;fill-rule:evenodd" sodipodi:nodetypes="ccccccaaaaaaa" id="path14666" inkscape:connector-curvature="0"></path> <path d="m 187.02,133.03 c -1.6725,2.0517 -6.2414,4.9097 -6.2414,4.9097 l -0.95463,-38.409 1.5,-9.9653 4.4816,-7.706 9.5527,-2.6476 10.811,2.25 26.394,-20.311 c 0,0 -0.38474,4.8622 -1.3529,7.0507 -1.49,3.3683 -3.9756,6.2855 -6.6286,8.8403 -2.7963,2.6928 -6.0385,5.0283 -9.5747,6.6302 -2.7662,1.2531 -5.807,2.027 -8.8382,2.2101 -3.9515,0.23866 -7.858,-1.9791 -11.784,-1.4734 -1.3113,0.1689 -2.7303,0.55621 -3.6826,1.4734 -1.7419,1.6777 -2.5518,4.2442 -2.9461,6.6302 -0.44216,2.676 0.30214,5.4263 0.73651,8.1036 0.68679,4.2332 2.4518,8.2638 2.9461,12.524 0.42456,3.6589 0.84611,7.4654 0,11.05 -0.75675,3.2063 -2.3376,6.2868 -4.4191,8.8403 z" style="fill:#000000;fill-opacity:0.49061997;fill-rule:evenodd" sodipodi:nodetypes="ccccccccaaaaaaaaaaa" id="path14668" inkscape:connector-curvature="0"></path> <path d="m 229.73,46.654 c -0.23085,-1.7109 -1.6796,-2.1879 -1.4596,-4.9693 0.16657,-2.1055 3.1789,-2.9394 5.1556,-3.6835 2.3091,-0.86923 4.9044,-0.91584 7.3652,-0.73669 3.0288,0.22049 5.8242,1.8389 8.8382,2.2101 4.1423,0.51006 8.8904,2.059 12.521,0 2.4888,-1.4115 3.6535,-4.6063 4.4056,-7.3669 0.77923,-2.8603 -0.0625,-8.8935 -0.0625,-8.8935 -13.519,3.0966 -27.401,2.4392 -39.696,12.577 l -4.451,5.081 c 0,0 3.6322,10.395 7.3251,9.133 1.0572,-0.36126 0.20783,-2.244 0.0584,-3.3511 z" style="fill:#000000;fill-opacity:0.49061997;fill-rule:evenodd" sodipodi:nodetypes="csaaaaacccaa" id="path14669" inkscape:connector-curvature="0"></path> <path d="m 89.801,222.17 c 2.9386,0.3231 5.9645,-0.0428 8.8382,-0.7367 4.3876,-1.0594 9.0132,-2.3159 12.521,-5.1568 4.3928,-3.5579 7.2024,-8.8661 9.5747,-13.997 2.3499,-5.0827 3.8743,-10.634 4.4191,-16.207 0.33535,-3.4303 0.61992,-7.1452 -0.73652,-10.314 -1.4365,-3.3556 -5.4785,-4.9788 -7.3652,-8.1036 -1.4856,-2.4605 -3.5685,-5.2976 -2.9461,-8.1036 0.60159,-2.712 3.6024,-4.3206 5.8921,-5.8935 1.9931,-1.3692 4.4057,-1.9951 6.6286,-2.9468 4.1495,-1.7764 8.0929,-4.2807 12.521,-5.1568 4.8167,-0.95308 9.8245,0.20411 14.73,0 2.9537,-0.12289 5.9074,-0.34899 8.8382,-0.7367 2.7212,-0.35999 5.6526,-0.23399 8.1017,-1.4734 2.0996,-1.0625 5.1312,-4.8484 5.1312,-4.8484 l -40.31,1.9734 -14.619,7.1568 -10.401,4.9694 -0.19607,6.956 -1.0454,6.4161 11.357,11.264 0.73652,7.3669 -7.3566,10.885 -6.2536,11.399 -24.749,13.202 c 0,0 4.3674,1.8298 6.6888,2.0851 z" style="fill:#000000;fill-opacity:0.49061997;fill-rule:evenodd" sodipodi:nodetypes="caaaaaaaaaaaaaccccccccccca" id="path14667" inkscape:connector-curvature="0"></path> <path d="m 106.09,268.38 c 0.90638,3.4608 2.8549,6.7071 5.2608,9.3548 3.6716,4.0406 8.3876,7.2966 13.444,9.3548 4.391,1.7873 9.2881,2.3661 14.029,2.3387 5.5419,-0.032 10.962,-1.7 16.367,-2.9234 7.8839,-1.7844 15.846,-3.5073 23.381,-6.4314 9.9929,-3.8776 19.427,-9.1426 28.642,-14.617 11.571,-6.8733 22.924,-14.254 33.319,-22.802 11.601,-9.5406 22.094,-20.415 32.15,-31.573 9.8411,-10.919 19.139,-22.387 27.473,-34.496 7.826,-11.371 14.937,-23.286 21.043,-35.665 5.2991,-10.743 11.042,-21.591 13.444,-33.327 1.9156,-9.3576 3.2282,-19.471 0.58453,-28.649 -2.2589,-7.8428 -7.1981,-15.21 -13.444,-20.464 -4.8757,-4.1006 -11.339,-6.1243 -17.536,-7.6008 -3.2278,-0.76899 -6.7579,-1.5347 -9.9371,-0.58468 -9.074,2.7114 -22.797,16.956 -22.797,16.956 l -28.642,30.403 -42.087,43.266 -22.797,24.556 -39.164,41.512 c 0,0 -11.901,13.589 -16.952,21.048 -6.017,8.8873 -11.92,18.132 -15.782,28.064 -1.0369,3.9592 -1.0369,8.319 0,12.278 z" style="fill:url(#linearGradient14650);fill-rule:evenodd" sodipodi:nodetypes="caaaaaaaaaaaaaaacccccaca" id="path14023" inkscape:connector-curvature="0"></path> <path d="m 18.303,312.17 c -0.10208,-7.2479 0.61364,-14.496 1.0416,-21.744 1.5369,5.54 3.3288,11.052 4.1664,16.669 4.7287,-6.7253 10.378,-11.873 15.624,-17.711 -3.7724,7.6589 -6.9465,15.557 -11.458,22.92 4.2232,-0.73902 8.3561,-0.30405 12.499,0 -3.5853,1.1172 -7.2306,2.0902 -10.416,4.1674 l 8.3327,1.0418 c -4.7322,0.81588 -9.2411,0.18087 -13.82,0 -2.0654,-1.6182 -4.0809,-3.3446 -5.9703,-5.344 z" style="fill:#ffffff;fill-opacity:0.53438003;fill-rule:evenodd" sodipodi:nodetypes="cccccccccc" id="path14661" inkscape:connector-curvature="0"></path> <path d="m 44.137,206.7 v 8.1036 l 8.1017,-3.6835 -8.1017,-4.4202 z" style="fill:#ffffff;fill-opacity:0.45;fill-rule:evenodd" id="path15926" inkscape:connector-curvature="0"></path> <path d="m 24.552,262.3 c 5.6397,7.617 16.322,13.015 25.293,7.969 5.7198,-9.1895 -7.3534,-17.07 -8.5323,-26.03 -2.7392,-11.814 11.823,-19.919 21.675,-22.715 9.2849,-2.0005 18.823,0.91984 28.239,0.21192 9.3979,-0.61465 17.74,-8.8543 22.487,-16.78 3.8068,-7.4286 8.6483,-15.447 8.2833,-23.979 0.55044,-9.7545 -11.651,-12.591 -11.363,-22.135 -0.94562,-8.1292 11.943,-8.1571 16.932,-12.996 7.9884,-2.7653 16.804,-3.695 25.285,-4.1722 9.2423,0.24015 19.863,3.002 28.265,-1.2073 6.3942,-7.8 12.015,-21.064 5.9476,-30.548 -3.6665,-7.5908 -6.5641,-22.899 1.857,-27.361 9.1742,-3.6614 20.153,3.2598 28.628,-3.4599 8.6183,-4.5711 18.233,-14.683 15.236,-25.2 -1.94,-7.9169 -14.225,-17.715 -0.0665,-19.683 8.2158,-0.08785 16.774,2.5584 24.825,1.2328 9.938,-0.51587 12.35,-14.742 4.0361,-19.599 -10.085,-8.8848 -7.2516,10.892 -16.987,8.1595 -7.8638,2.5289 -16.75,1.7163 -24.176,5.2587 -13.76,5.2966 -7.1871,18.528 -2.8246,27.701 -4.9956,8.9675 -18.107,7.3791 -26.366,12.685 -9.6104,3.2019 -22.292,8.8313 -21.484,20.952 -1.7143,11.248 3.3174,23.052 0.55237,33.886 -3.5034,7.8871 -13.833,4.3522 -20.774,6.8242 -10.261,1.5314 -20.416,3.9025 -29.453,9.1543 -9.498,4.5467 -16.19,13.267 -22.861,21.132 -7.3511,9.9463 9.9669,20.11 4.895,28.976 -10.104,9.0938 -24.817,8.1459 -36.767,13.623 -12.898,4.1139 -23.514,12.804 -33.491,21.634 -4.4451,10.61 -9.9849,21.814 -7.5279,33.623 0.03946,0.4736 0.19729,2.3681 0.23675,2.8417 z" style="fill:#d4c800;fill-rule:evenodd" id="path14662" inkscape:connector-curvature="0"></path> <path d="m 24.428,263.5 c 5.6397,7.617 16.322,13.015 25.293,7.969 5.7198,-9.1896 -7.3534,-17.07 -8.5323,-26.03 -2.7392,-11.814 11.823,-19.919 21.675,-22.715 9.2848,-2.0006 18.823,0.91985 28.239,0.21193 9.3979,-0.61467 17.74,-8.8544 22.487,-16.78 3.8068,-7.4286 8.6483,-15.447 8.2833,-23.979 0.55043,-9.7545 -11.651,-12.591 -11.363,-22.135 -0.94563,-8.1292 11.943,-8.1571 16.932,-12.996 7.9884,-2.7653 16.804,-3.6951 25.285,-4.1722 9.2423,0.24015 19.863,3.002 28.265,-1.2073 6.3942,-7.8 12.015,-21.064 5.9476,-30.548 -3.6665,-7.5908 -6.5641,-22.899 1.857,-27.361 9.1742,-3.6613 20.153,3.2598 28.628,-3.4599 8.6183,-4.5711 18.233,-14.683 15.236,-25.2 -1.94,-7.9169 -14.225,-17.715 -0.0665,-19.683 8.2158,-0.08785 16.774,2.5584 24.825,1.2328 9.938,-0.51587 12.35,-14.742 4.0361,-19.599 -10.085,-8.8848 -7.2516,10.892 -16.987,8.1595 -7.8638,2.5289 -16.75,1.7163 -24.176,5.2587 -13.76,5.2966 -7.1871,18.528 -2.8246,27.701 -4.9956,8.9675 -18.107,7.3791 -26.366,12.685 -9.6104,3.2019 -22.292,8.8313 -21.484,20.952 -1.7143,11.248 3.3174,23.052 0.55238,33.886 -3.5034,7.8871 -13.833,4.3522 -20.774,6.8242 -10.261,1.5314 -20.416,3.9025 -29.453,9.1543 -9.498,4.5467 -16.19,13.267 -22.861,21.132 -7.3511,9.9463 9.9669,20.11 4.895,28.976 -10.104,9.0938 -24.817,8.1459 -36.767,13.623 -12.898,4.1139 -23.514,12.804 -33.491,21.634 -4.4451,10.61 -9.9849,21.814 -7.5279,33.623 0.03946,0.47359 0.19729,2.3681 0.23675,2.8417 z" style="fill:url(#linearGradient15293);fill-rule:evenodd" id="path15292" inkscape:connector-curvature="0"></path> <path d="m 29.407,247.96 -2.2096,8.8403 2.9461,8.1036 7.3652,1.4734 2.9461,-3.6835 -5.8921,-5.8935 -5.1556,-8.8403 z" style="fill:#ffffff;fill-opacity:0.44688033;fill-rule:evenodd" id="path15297" inkscape:connector-curvature="0"></path> <path d="m 101.59,156.61 -4.4191,5.1568 1.473,9.577 4.4191,10.314 v 8.8403 l -2.9461,3.6834 6.6286,-8.1036 2.2096,-11.787 -2.9461,-8.1036 -3.6826,-5.1568 -0.73652,-4.4202 z" style="fill:#ffffff;fill-opacity:0.43125;fill-rule:evenodd" id="path15300" inkscape:connector-curvature="0"></path> <path d="m 170.08,89.569 -0.7365,18.908 0.7365,15.307 -4.4191,5.4024 h -5.1556 l 8.1017,0.9004 7.3652,-3.6016 2.2096,-11.705 -0.73651,-8.1036 -2.9461,-11.705 -4.4191,-5.4024 z" style="fill:#ffffff;fill-opacity:0.43125;fill-rule:evenodd" id="path15301" inkscape:connector-curvature="0"></path> <path d="m 213.54,40.211 0.73652,8.8403 1.473,5.8935 -1.473,6.6302 -5.1556,2.2101 -2.9461,0.73669 8.8382,0.7367 6.6286,-2.9468 2.2096,-8.8403 -3.6826,-8.1036 -2.2096,-5.1568 -1.473,-7.3669 -2.9461,7.3669 z" style="fill:#ffffff;fill-opacity:0.43125;fill-rule:evenodd" id="path15302" inkscape:connector-curvature="0"></path> <path d="m 47.083,183.87 10.311,9.577 0.73652,8.1036 0.73652,-13.997 -5.1556,-13.997 -8.8382,1.4734 -2.2095,1.4734 4.4191,7.3669 z" style="fill:#ffffff;fill-opacity:0.53125;fill-rule:evenodd" id="path15927" inkscape:connector-curvature="0"></path> <path d="m 64.76,157.35 11.048,2.9468 2.9461,-8.1036 -5.8921,-9.577 -9.5747,-2.9468 -3.6826,8.8403 5.1556,8.8403 z" style="fill:#000000;fill-opacity:0.27812003;fill-rule:evenodd" id="path15928" inkscape:connector-curvature="0"></path> <path d="m 80.963,158.08 -10.311,8.8403 -8.8382,-5.8935 -0.73652,-5.1568 19.886,2.2101 z" style="fill:#ffffff;fill-opacity:0.44688033;fill-rule:evenodd" id="path15929" inkscape:connector-curvature="0"></path> <path d="m 96.43,155.14 -4.4191,-8.8403 16.94,-11.05 2.2096,7.3669 -14.73,12.524 z" style="fill:#ffffff;fill-opacity:0.575;fill-rule:evenodd" id="path15930" inkscape:connector-curvature="0"></path> <path d="m 102.32,107.25 -8.8382,10.314 11.784,4.4202 10.311,-16.207 -13.257,1.4734 z" style="fill:#000000;fill-opacity:0.5375;fill-rule:evenodd" id="path15931" inkscape:connector-curvature="0"></path> <path d="m 136.94,101.36 2.2096,13.26 11.784,-11.787 -7.3652,-12.524 -6.6286,11.05 z" style="fill:#000000;fill-opacity:0.55312003;fill-rule:evenodd" id="path15932" inkscape:connector-curvature="0"></path> <path d="m 157.56,73.362 -0.73651,8.1036 13.994,-3.6835 -5.1556,-8.1036 -8.1017,3.6835 z" style="fill:#000000;fill-opacity:0.4625;fill-rule:evenodd" id="path15933" inkscape:connector-curvature="0"></path> <path d="m 164.93,57.155 9.5747,8.1036 5.1556,-3.6835 v -5.8935 l -14.73,1.4734 z" style="fill:#ffffff;fill-opacity:0.60938003;fill-rule:evenodd" id="path15934" inkscape:connector-curvature="0"></path> <path d="m 195.12,42.421 2.9461,6.6302 5.8921,-1.4734 v -8.8403 z" style="fill:#000000;fill-opacity:0.29062003;fill-rule:evenodd" id="path15935" inkscape:connector-curvature="0"></path> <path d="m 53.712,172.08 10.311,17.681 8.1017,-5.8936 -5.1556,-7.3669 -2.9461,4.4202 -10.311,-8.8403 z" style="fill:#000000;fill-opacity:0.27812003;fill-rule:evenodd" id="path15936" inkscape:connector-curvature="0"></path> <path d="m 42.664,208.18 -2.2096,5.1568 -2.9461,5.8935 -0.73652,-10.314 5.8921,-0.73669 z" style="fill:#000000;fill-opacity:0.33125;fill-rule:evenodd" id="path16558" inkscape:connector-curvature="0"></path> <path d="m 77.28,158.82 9.5747,11.787 5.8921,-13.997 -7.3652,5.8935 -8.1017,-3.6835 z" style="fill:#000000;fill-opacity:0.33125;fill-rule:evenodd" id="path17180" inkscape:connector-curvature="0"></path> <path d="m 110.42,115.35 13.257,5.8935 5.1556,5.8935 -2.2096,-10.314 5.8921,-18.417 -10.311,16.207 -11.784,0.73669 z" style="fill:#ffffff;fill-opacity:0.5625;fill-rule:evenodd" id="path17181" inkscape:connector-curvature="0"></path> <path d="m 107.48,135.98 0.73651,6.6302 -11.048,10.314 0.73651,4.4202 17.676,-16.207 -4.4191,-3.6835 -3.6826,-1.4734 z" style="fill:#000000;fill-opacity:0.33125;fill-rule:evenodd" id="path17182" inkscape:connector-curvature="0"></path> <path d="m 125.15,105.78 19.149,-1.4734 -14.73,-20.627 4.4191,9.577 -8.8382,12.524 z" style="fill:#000000;fill-opacity:0.33125;fill-rule:evenodd" id="path17183" inkscape:connector-curvature="0"></path> <path d="m 156.09,74.099 -13.257,0.73669 v 11.787 l 5.8921,-1.4734 1.473,-7.3669 5.8921,-3.6835 z" style="fill:#ffffff;fill-opacity:0.59375;fill-rule:evenodd" id="path17184" inkscape:connector-curvature="0"></path> <path d="m 170.82,59.365 6.6286,12.524 12.521,-11.05 -8.1017,-5.8935 -2.9461,7.3669 -8.1017,-2.9468 z" style="fill:#000000;fill-opacity:0.48438003;fill-rule:evenodd" id="path17186" inkscape:connector-curvature="0"></path> </g> <metadata id="metadata50"> <rdf:rdf> <cc:work> <dc:format>image/svg+xml</dc:format> <dc:type rdf:resource="http://purl.org/dc/dcmitype/StillImage"></dc:type> <cc:license rdf:resource="http://creativecommons.org/publicdomain/zero/1.0/"></cc:license> <dc:publisher> <cc:agent rdf:about="http://openclipart.org/"> <dc:title>OpenClipart</dc:title> </cc:agent> </dc:publisher> <dc:title>Hot Dog</dc:title> <dc:date> </dc:date> <dc:description>I rounded the edges of Juliane's Hot Dog.\n\nOriginal: &lt;a href="http://www.clker.com/clipart-4092.html" target="_blank"&gt;Hot Dog&lt;/a&gt;</dc:description> <dc:source>https://openclipart.org/detail/69763</dc:source> <dc:creator> <cc:agent> <dc:title>Juliane Krug</dc:title> </cc:agent> </dc:creator> <dc:subject> <rdf:bag> <rdf:li>bun</rdf:li> <rdf:li>dog</rdf:li> <rdf:li>food</rdf:li> <rdf:li>hot</rdf:li> <rdf:li>ketchup</rdf:li> <rdf:li>lunch</rdf:li> <rdf:li>meat</rdf:li> <rdf:li>mustard</rdf:li> <rdf:li>protein</rdf:li> <rdf:li>relish</rdf:li> </rdf:bag> </dc:subject> </cc:work> <cc:license rdf:about="http://creativecommons.org/publicdomain/zero/1.0/"> <cc:permits rdf:resource="http://creativecommons.org/ns#Reproduction"></cc:permits> <cc:permits rdf:resource="http://creativecommons.org/ns#Distribution"></cc:permits> <cc:permits rdf:resource="http://creativecommons.org/ns#DerivativeWorks"></cc:permits> </cc:license> </rdf:rdf> </metadata> </g></svg>
