<svg height="200px" width="200px" version="1.1" id="Layer_1" xmlns="http://www.w3.org/2000/svg" xmlns:xlink="http://www.w3.org/1999/xlink" viewBox="0 0 511.997 511.997" xml:space="preserve" fill="#000000"><g id="SVGRepo_bgCarrier" stroke-width="0"></g><g id="SVGRepo_tracerCarrier" stroke-linecap="round" stroke-linejoin="round"></g><g id="SVGRepo_iconCarrier"> <path style="fill:#578CAD;" d="M361.728,386.863h120.124c12.137,0,21.976-9.837,21.976-21.974v-14.65 c0-12.138-9.838-21.976-21.976-21.976h-18.461c0-0.044,0.007-0.087,0.007-0.132v-14.258c0-30.544-24.762-55.306-55.305-55.306 H103.908c-30.543,0-55.305,24.762-55.305,55.306v14.258c0,0.045,0.007,0.088,0.007,0.132H30.148 c-12.137,0-21.976,9.837-21.976,21.976v14.65c0,12.137,9.838,21.974,21.976,21.974h305.43"></path> <path style="fill:#90C8EC;" d="M100.688,258.568h310.626c-13.395-73.635-77.81-129.485-155.314-129.485 C178.498,129.082,114.083,184.933,100.688,258.568z"></path> <g> <path style="fill:#3A5D74;" d="M335.964,258.568v-32.107c0-12.136-9.838-21.976-21.973-21.976H198.01 c-12.135,0-21.973,9.839-21.973,21.976v32.107H335.964z"></path> <path style="fill:#3A5D74;" d="M392.733,386.863H134.552h-15.285c-11.798,0-21.364,9.566-21.364,21.364 c0,11.8,9.566,21.364,21.364,21.364h273.466c11.801,0,21.364-9.564,21.364-21.364C414.097,396.43,404.534,386.863,392.733,386.863z "></path> </g> <path style="fill:#FF4D30;" d="M287.741,44.56c0,17.53-14.212,31.741-31.742,31.741S224.258,62.09,224.258,44.56 c0-17.533,14.212-31.743,31.742-31.743S287.741,27.027,287.741,44.56z"></path> <g style="opacity:0.2;"> <path style="fill:#231F20;" d="M103.908,258.568c-30.543,0-55.305,24.762-55.305,55.306v14.258c0,0.045,0.007,0.088,0.007,0.132 H30.148c-12.137,0-21.976,9.837-21.976,21.976v14.65c0,12.137,9.838,21.974,21.976,21.974h25.606 c-12.137,0-21.976-9.837-21.976-21.974v-14.65c0-14.211,9.838-16.527,21.976-16.527h2.275c4.05-0.126,16.181-1.544,16.181-14.028 v-0.362c0-0.154,0.011-5.751,0.012-5.905c0.004-0.247,0.01-0.49,0.019-0.715c0.625-30.002,25.125-54.135,55.276-54.135 L103.908,258.568L103.908,258.568z"></path> </g> <g style="opacity:0.2;"> <path style="fill:#231F20;" d="M268.803,129.604c-4.223-0.339-8.491-0.522-12.803-0.522c-77.502,0-141.917,55.851-155.312,129.485 h25.606C138.944,189.029,197.099,135.361,268.803,129.604z"></path> </g> <g style="opacity:0.2;"> <path style="fill:#231F20;" d="M223.616,204.485H198.01c-12.135,0-21.973,9.839-21.973,21.976v32.107h25.606v-32.107 C201.643,214.326,211.481,204.485,223.616,204.485z"></path> </g> <g style="opacity:0.2;"> <path style="fill:#231F20;" d="M123.509,408.229c0-11.798,9.566-21.364,21.364-21.364h-10.321h-15.285 c-11.798,0-21.364,9.566-21.364,21.364c0,11.8,9.566,21.364,21.364,21.364h25.606C133.075,429.592,123.509,420.028,123.509,408.229 z"></path> </g> <g style="opacity:0.2;"> <path style="fill:#231F20;" d="M249.865,44.56c0-12.975,7.786-24.123,18.939-29.046c-3.917-1.729-8.246-2.697-12.803-2.697 c-17.53,0-31.742,14.21-31.742,31.743c0,17.53,14.212,31.741,31.742,31.741c4.557,0,8.886-0.968,12.803-2.697 C257.651,68.681,249.865,57.532,249.865,44.56z"></path> </g> <g> <path style="fill:#231F20;" d="M481.852,320.091h-10.284v-6.217c0-31.575-23.176-57.831-53.408-62.671 c-16.049-73.199-79.237-126.451-153.989-130.088V83.629c18.102-3.781,31.742-19.861,31.742-39.068 c0-22.009-17.906-39.915-39.914-39.915s-39.914,17.906-39.914,39.915c0,19.208,13.64,35.287,31.742,39.068v37.486 c-74.749,3.637-137.937,56.889-153.987,130.087c-30.233,4.839-53.41,31.096-53.41,62.672v6.217H30.147 C13.524,320.091,0,333.616,0,350.239v14.65c0,16.623,13.524,30.147,30.148,30.147h62.703c-1.993,3.974-3.122,8.452-3.122,13.192 c0,16.286,13.25,29.536,29.536,29.536h7.013L90.95,494.88c-2.374,3.839-1.187,8.875,2.652,11.249 c1.339,0.828,2.824,1.223,4.291,1.223c2.737,0,5.412-1.375,6.958-3.875l40.646-65.714h102.331v61.414 c0,4.514,3.658,8.172,8.172,8.172c4.514,0,8.172-3.658,8.172-8.172v-61.414h102.327l40.646,65.714 c1.546,2.5,4.221,3.875,6.958,3.875c1.468,0,2.953-0.394,4.291-1.223c3.838-2.375,5.025-7.412,2.652-11.249l-35.329-57.116h7.013 c16.287,0,29.536-13.25,29.536-29.536c0-4.74-1.129-9.218-3.122-13.192h62.703c16.623,0,30.148-13.523,30.148-30.147v-14.65 C512,333.616,498.476,320.091,481.852,320.091z M232.431,44.56c0-12.997,10.573-23.571,23.57-23.571 c12.997,0,23.57,10.574,23.57,23.571c0,12.996-10.573,23.569-23.57,23.569C243.004,68.129,232.431,57.556,232.431,44.56z M255.999,137.254c69.085,0,128.646,47.018,145.195,113.141h-57.058v-23.935c0-16.623-13.523-30.148-30.146-30.148H198.01 c-16.622,0-30.146,13.524-30.146,30.148v23.935h-57.056C127.355,184.274,186.915,137.254,255.999,137.254z M327.791,250.395 H184.209v-23.935c0-7.611,6.191-13.803,13.801-13.803H313.99c7.61,0,13.801,6.192,13.801,13.803L327.791,250.395L327.791,250.395z M495.656,364.89c0,7.61-6.192,13.802-13.803,13.802H361.728c-4.514,0-8.172,3.658-8.172,8.172s3.658,8.172,8.172,8.172h31.005 c7.274,0,13.192,5.919,13.192,13.192c0,7.274-5.919,13.192-13.192,13.192H119.267c-7.274,0-13.192-5.918-13.192-13.192 s5.919-13.192,13.192-13.192h15.285h201.025c4.514,0,8.172-3.658,8.172-8.172s-3.658-8.172-8.172-8.172H134.552h-15.285H30.148 c-7.611,0-13.803-6.192-13.803-13.802v-14.65c0-7.611,6.192-13.803,13.803-13.803h18.461c4.514,0,8.172-3.658,8.172-8.172 c0-0.11-0.002-0.22-0.007-0.331v-14.058c0-25.99,21.143-47.134,47.133-47.134h72.128h159.928h72.128 c25.99,0,47.133,21.144,47.133,47.134v14.075c-0.004,0.111-0.007,0.22-0.007,0.315c0,4.514,3.658,8.172,8.172,8.172h18.461 c7.611,0,13.803,6.192,13.803,13.803v14.65H495.656z"></path> <path style="fill:#231F20;" d="M417.149,314.543H94.851c-4.514,0-8.172,3.658-8.172,8.172s3.658,8.172,8.172,8.172h322.299 c4.514,0,8.172-3.658,8.172-8.172C425.322,318.202,421.663,314.543,417.149,314.543z"></path> </g> </g></svg>
